<?xml version="1.0" encoding="utf-8"?>
<svg width="700pt" height="700pt" version="1.1" viewBox="133.808 83.3 432.217 392.162" xmlns="http://www.w3.org/2000/svg" xmlns:xlink="http://www.w3.org/1999/xlink">
  <title>Icon for uriel</title>
  <desc>Original artwork created by Vectors Point for the Noun Project and downloaded on 2021-12-07 from https://thenounproject.com/icon/bighorn-sheep-head-2608122/</desc>
  <defs>
    <symbol id="u" overflow="visible">
      <path d="m6.3594-0.375c-0.33594 0.16797-0.67969 0.29297-1.0312 0.375-0.35547 0.09375-0.72656 0.14062-1.1094 0.14062-1.1562 0-2.0742-0.32031-2.75-0.96875-0.66797-0.64453-1-1.5195-1-2.625 0-1.1016 0.33203-1.9766 1-2.625 0.67578-0.64453 1.5938-0.96875 2.75-0.96875 0.38281 0 0.75391 0.046875 1.1094 0.14062 0.35156 0.085938 0.69531 0.21094 1.0312 0.375v1.4375c-0.33594-0.22656-0.66406-0.39453-0.98438-0.5-0.32422-0.10156-0.66406-0.15625-1.0156-0.15625-0.63672 0-1.1367 0.20312-1.5 0.60938-0.36719 0.40625-0.54688 0.96875-0.54688 1.6875s0.17969 1.2812 0.54688 1.6875c0.36328 0.40625 0.86328 0.60938 1.5 0.60938 0.35156 0 0.69141-0.050781 1.0156-0.15625 0.32031-0.10156 0.64844-0.26953 0.98438-0.5z"/>
    </symbol>
    <symbol id="d" overflow="visible">
      <path d="m4.6562-3.7812c-0.14844-0.0625-0.29297-0.10938-0.4375-0.14062-0.14844-0.03125-0.29297-0.046875-0.4375-0.046875-0.42969 0-0.75781 0.13672-0.98438 0.40625-0.23047 0.27344-0.34375 0.66406-0.34375 1.1719v2.3906h-1.6562v-5.1875h1.6562v0.85938c0.21875-0.34375 0.46094-0.59375 0.73438-0.75 0.28125-0.15625 0.61328-0.23438 1-0.23438 0.050781 0 0.10938 0.007812 0.17188 0.015625 0.0625 0 0.15625 0.007813 0.28125 0.015625z"/>
    </symbol>
    <symbol id="b" overflow="visible">
      <path d="m5.9688-2.6094v0.46875h-3.875c0.039062 0.39844 0.17969 0.69531 0.42188 0.89062 0.23828 0.1875 0.57812 0.28125 1.0156 0.28125 0.34375 0 0.69531-0.050781 1.0625-0.15625 0.375-0.10156 0.75391-0.25781 1.1406-0.46875v1.2812c-0.39844 0.14844-0.79297 0.25781-1.1875 0.32812-0.38672 0.082031-0.77734 0.125-1.1719 0.125-0.9375 0-1.668-0.23828-2.1875-0.71875-0.52344-0.47656-0.78125-1.1484-0.78125-2.0156 0-0.84375 0.25391-1.5039 0.76562-1.9844 0.50781-0.48828 1.2109-0.73438 2.1094-0.73438 0.8125 0 1.4609 0.24609 1.9531 0.73438 0.48828 0.49219 0.73438 1.1484 0.73438 1.9688zm-1.7031-0.54688c0-0.3125-0.09375-0.5625-0.28125-0.75-0.17969-0.19531-0.41406-0.29688-0.70312-0.29688-0.32422 0-0.58984 0.089844-0.79688 0.26562-0.19922 0.17969-0.32422 0.4375-0.375 0.78125z"/>
    </symbol>
    <symbol id="l" overflow="visible">
      <path d="m3.125-2.3281c-0.34375 0-0.60547 0.058594-0.78125 0.17188-0.17969 0.11719-0.26562 0.28906-0.26562 0.51562 0 0.21094 0.066406 0.375 0.20312 0.5 0.14453 0.11719 0.34375 0.17188 0.59375 0.17188 0.3125 0 0.57031-0.10938 0.78125-0.32812 0.21875-0.22656 0.32812-0.50781 0.32812-0.84375v-0.1875zm2.5312-0.625v2.9531h-1.6719v-0.76562c-0.21875 0.3125-0.46875 0.54297-0.75 0.6875-0.28125 0.14453-0.62109 0.21875-1.0156 0.21875-0.54297 0-0.98047-0.15625-1.3125-0.46875-0.33594-0.32031-0.5-0.73438-0.5-1.2344 0-0.60156 0.20703-1.0469 0.625-1.3281 0.41406-0.28906 1.0703-0.4375 1.9688-0.4375h0.98438v-0.125c0-0.25781-0.10547-0.44531-0.3125-0.5625-0.21094-0.125-0.53125-0.1875-0.96875-0.1875-0.35547 0-0.6875 0.039063-1 0.10938-0.30469 0.0625-0.58594 0.16797-0.84375 0.3125v-1.2656c0.35156-0.082031 0.70703-0.14453 1.0625-0.1875 0.36328-0.050781 0.72266-0.078125 1.0781-0.078125 0.9375 0 1.6133 0.1875 2.0312 0.5625 0.41406 0.36719 0.625 0.96484 0.625 1.7969z"/>
    </symbol>
    <symbol id="a" overflow="visible">
      <path d="m2.6094-6.6562v1.4688h1.7031v1.1875h-1.7031v2.2031c0 0.24219 0.046875 0.40234 0.14062 0.48438 0.09375 0.085938 0.28516 0.125 0.57812 0.125h0.84375v1.1875h-1.4219c-0.65625 0-1.1211-0.13281-1.3906-0.40625-0.27344-0.26953-0.40625-0.73438-0.40625-1.3906v-2.2031h-0.82812v-1.1875h0.82812v-1.4688z"/>
    </symbol>
    <symbol id="k" overflow="visible">
      <path d="m4.3281-4.4219v-2.7812h1.6719v7.2031h-1.6719v-0.75c-0.23047 0.30469-0.48438 0.52734-0.76562 0.67188-0.27344 0.14453-0.58984 0.21875-0.95312 0.21875-0.63672 0-1.1641-0.25391-1.5781-0.76562-0.40625-0.50781-0.60938-1.1641-0.60938-1.9688 0-0.78906 0.20312-1.4414 0.60938-1.9531 0.41406-0.50781 0.94141-0.76562 1.5781-0.76562 0.36328 0 0.67969 0.074219 0.95312 0.21875 0.28125 0.14844 0.53516 0.37109 0.76562 0.67188zm-1.0938 3.3594c0.35156 0 0.625-0.12891 0.8125-0.39062 0.1875-0.25781 0.28125-0.64062 0.28125-1.1406 0-0.48828-0.09375-0.86328-0.28125-1.125-0.1875-0.25781-0.46094-0.39062-0.8125-0.39062-0.35547 0-0.625 0.13281-0.8125 0.39062-0.1875 0.26172-0.28125 0.63672-0.28125 1.125 0 0.5 0.09375 0.88281 0.28125 1.1406 0.1875 0.26172 0.45703 0.39062 0.8125 0.39062z"/>
    </symbol>
    <symbol id="j" overflow="visible">
      <path d="m3.5625-1.0625c0.35156 0 0.625-0.12891 0.8125-0.39062 0.1875-0.25781 0.28125-0.64062 0.28125-1.1406 0-0.48828-0.09375-0.86328-0.28125-1.125-0.1875-0.25781-0.46094-0.39062-0.8125-0.39062-0.35547 0-0.63281 0.13281-0.82812 0.39062-0.1875 0.26172-0.28125 0.63672-0.28125 1.125 0 0.49219 0.09375 0.87109 0.28125 1.1406 0.19531 0.26172 0.47266 0.39062 0.82812 0.39062zm-1.1094-3.3594c0.22656-0.30078 0.47656-0.52344 0.75-0.67188 0.28125-0.14453 0.60156-0.21875 0.96875-0.21875 0.63281 0 1.1562 0.25781 1.5625 0.76562 0.41406 0.51172 0.625 1.1641 0.625 1.9531 0 0.80469-0.21094 1.4609-0.625 1.9688-0.40625 0.51172-0.92969 0.76562-1.5625 0.76562-0.36719 0-0.6875-0.074219-0.96875-0.21875-0.27344-0.14453-0.52344-0.36719-0.75-0.67188v0.75h-1.6562v-7.2031h1.6562z"/>
    </symbol>
    <symbol id="i" overflow="visible">
      <path d="m0.10938-5.1875h1.6719l1.3906 3.5156 1.1875-3.5156h1.6562l-2.1875 5.6719c-0.21875 0.58203-0.47656 0.98828-0.76562 1.2188-0.29297 0.22656-0.67969 0.34375-1.1562 0.34375h-0.95312v-1.0938h0.51562c0.28125 0 0.48438-0.046875 0.60938-0.14062 0.13281-0.085938 0.23438-0.24219 0.29688-0.46875l0.046875-0.14062z"/>
    </symbol>
    <symbol id="h" overflow="visible">
      <path d="m0.046875-6.9219h1.7969l1.8281 5.1094 1.8281-5.1094h1.7969l-2.5625 6.9219h-2.125z"/>
    </symbol>
    <symbol id="g" overflow="visible">
      <path d="m4.9844-5.0312v1.3594c-0.21875-0.15625-0.44531-0.26953-0.67188-0.34375-0.23047-0.070313-0.46484-0.10938-0.70312-0.10938-0.46875 0-0.83594 0.13672-1.0938 0.40625-0.25 0.27344-0.375 0.64844-0.375 1.125 0 0.49219 0.125 0.87109 0.375 1.1406 0.25781 0.27344 0.625 0.40625 1.0938 0.40625 0.25 0 0.48828-0.035156 0.71875-0.10938 0.23828-0.082031 0.45703-0.20312 0.65625-0.35938v1.3594c-0.26172 0.09375-0.52734 0.16406-0.79688 0.21875-0.26172 0.050781-0.52734 0.078125-0.79688 0.078125-0.9375 0-1.6719-0.23828-2.2031-0.71875-0.52344-0.48828-0.78125-1.1602-0.78125-2.0156 0-0.85156 0.25781-1.5195 0.78125-2 0.53125-0.47656 1.2656-0.71875 2.2031-0.71875 0.26953 0 0.53516 0.027344 0.79688 0.078125 0.26953 0.042969 0.53516 0.10938 0.79688 0.20312z"/>
    </symbol>
    <symbol id="c" overflow="visible">
      <path d="m3.2656-4.125c-0.36719 0-0.64844 0.13672-0.84375 0.40625-0.1875 0.26172-0.28125 0.63672-0.28125 1.125 0 0.5 0.09375 0.88672 0.28125 1.1562 0.19531 0.26172 0.47656 0.39062 0.84375 0.39062 0.36328 0 0.64062-0.12891 0.82812-0.39062 0.1875-0.26953 0.28125-0.65625 0.28125-1.1562 0-0.48828-0.09375-0.86328-0.28125-1.125-0.1875-0.26953-0.46484-0.40625-0.82812-0.40625zm0-1.1875c0.89453 0 1.5938 0.24609 2.0938 0.73438 0.5 0.48047 0.75 1.1406 0.75 1.9844 0 0.85547-0.25 1.5273-0.75 2.0156-0.5 0.48047-1.1992 0.71875-2.0938 0.71875-0.89844 0-1.6016-0.23828-2.1094-0.71875-0.5-0.48828-0.75-1.1602-0.75-2.0156 0-0.84375 0.25-1.5039 0.75-1.9844 0.50781-0.48828 1.2109-0.73438 2.1094-0.73438z"/>
    </symbol>
    <symbol id="t" overflow="visible">
      <path d="m4.8438-5.0312v1.2656c-0.35547-0.14453-0.69922-0.25391-1.0312-0.32812-0.32422-0.070312-0.63281-0.10938-0.92188-0.10938-0.32422 0-0.5625 0.042969-0.71875 0.125-0.14844 0.074219-0.21875 0.1875-0.21875 0.34375 0 0.13672 0.054687 0.24219 0.17188 0.3125 0.11328 0.074219 0.32031 0.125 0.625 0.15625l0.29688 0.046875c0.84375 0.10547 1.4102 0.28125 1.7031 0.53125 0.30078 0.25 0.45312 0.63672 0.45312 1.1562 0 0.55469-0.21094 0.96875-0.625 1.25-0.40625 0.28125-1.0117 0.42188-1.8125 0.42188-0.34375 0-0.69922-0.03125-1.0625-0.09375-0.36719-0.050781-0.74609-0.12891-1.1406-0.23438v-1.2656c0.33203 0.16797 0.67188 0.29297 1.0156 0.375 0.35156 0.074219 0.70703 0.10938 1.0625 0.10938 0.32031 0 0.56641-0.039062 0.73438-0.125 0.16406-0.09375 0.25-0.22656 0.25-0.40625 0-0.14453-0.058594-0.25391-0.17188-0.32812-0.11719-0.070313-0.33984-0.12891-0.67188-0.17188l-0.29688-0.03125c-0.74219-0.09375-1.2617-0.26562-1.5625-0.51562-0.29297-0.25-0.4375-0.62891-0.4375-1.1406 0-0.55078 0.1875-0.95703 0.5625-1.2188 0.38281-0.26953 0.96094-0.40625 1.7344-0.40625 0.3125 0 0.63281 0.027344 0.96875 0.078125 0.33203 0.042969 0.69531 0.10938 1.0938 0.20312z"/>
    </symbol>
    <symbol id="f" overflow="visible">
      <path d="m0.875-6.9219h2.9531c0.88281 0 1.5625 0.19922 2.0312 0.59375 0.46875 0.38672 0.70312 0.94531 0.70312 1.6719 0 0.71875-0.23438 1.2773-0.70312 1.6719-0.46875 0.38672-1.1484 0.57812-2.0312 0.57812h-1.1719v2.4062h-1.7812zm1.7812 1.2969v1.9375h0.98438c0.34375 0 0.60938-0.082031 0.79688-0.25 0.1875-0.17578 0.28125-0.41406 0.28125-0.71875 0-0.3125-0.09375-0.55078-0.28125-0.71875-0.1875-0.16406-0.45312-0.25-0.79688-0.25z"/>
    </symbol>
    <symbol id="s" overflow="visible">
      <path d="m0.79688-5.1875h1.6562v5.1875h-1.6562zm0-2.0156h1.6562v1.3438h-1.6562z"/>
    </symbol>
    <symbol id="e" overflow="visible">
      <path d="m6.0156-3.1562v3.1562h-1.6719v-2.4219c0-0.44531-0.011719-0.75391-0.03125-0.92188-0.023438-0.16406-0.058594-0.28906-0.10938-0.375-0.0625-0.10156-0.15234-0.1875-0.26562-0.25-0.10547-0.0625-0.23047-0.09375-0.375-0.09375-0.34375 0-0.61719 0.13672-0.8125 0.40625-0.19922 0.26172-0.29688 0.63281-0.29688 1.1094v2.5469h-1.6562v-5.1875h1.6562v0.76562c0.25-0.30078 0.51562-0.52344 0.79688-0.67188 0.28125-0.14453 0.59375-0.21875 0.9375-0.21875 0.59375 0 1.0469 0.1875 1.3594 0.5625 0.3125 0.36719 0.46875 0.89844 0.46875 1.5938z"/>
    </symbol>
    <symbol id="r" overflow="visible">
      <path d="m4.2031-7.2031v1.0781h-0.90625c-0.24219 0-0.40625 0.046875-0.5 0.14062-0.09375 0.085937-0.14062 0.23047-0.14062 0.4375v0.35938h1.4219v1.1875h-1.4219v4h-1.6562v-4h-0.8125v-1.1875h0.8125v-0.35938c0-0.5625 0.15625-0.97656 0.46875-1.25 0.32031-0.26953 0.8125-0.40625 1.4688-0.40625z"/>
    </symbol>
    <symbol id="q" overflow="visible">
      <path d="m5.6094-4.3281c0.20703-0.32031 0.45312-0.56641 0.73438-0.73438 0.28906-0.16406 0.60938-0.25 0.95312-0.25 0.60156 0 1.0547 0.1875 1.3594 0.5625 0.3125 0.36719 0.46875 0.89844 0.46875 1.5938v3.1562h-1.6562v-2.7031-0.125-0.1875c0-0.36328-0.054688-0.62891-0.15625-0.79688-0.10547-0.16406-0.27734-0.25-0.51562-0.25-0.32422 0-0.57422 0.13281-0.75 0.39062-0.16797 0.26172-0.25 0.63672-0.25 1.125v2.5469h-1.6719v-2.7031c0-0.57031-0.054688-0.94141-0.15625-1.1094-0.09375-0.16406-0.26562-0.25-0.51562-0.25-0.32422 0-0.57422 0.13281-0.75 0.39062-0.16797 0.26172-0.25 0.63672-0.25 1.125v2.5469h-1.6719v-5.1875h1.6719v0.76562c0.20703-0.30078 0.44141-0.52344 0.70312-0.67188 0.25781-0.14453 0.55078-0.21875 0.875-0.21875 0.35156 0 0.66406 0.089844 0.9375 0.26562 0.28125 0.16797 0.49219 0.40625 0.64062 0.71875z"/>
    </symbol>
    <symbol id="p" overflow="visible">
      <path d="m6.0156-3.1562v3.1562h-1.6719v-2.4062c0-0.45703-0.011719-0.76953-0.03125-0.9375-0.023438-0.16406-0.058594-0.28906-0.10938-0.375-0.0625-0.10156-0.15234-0.1875-0.26562-0.25-0.10547-0.0625-0.23047-0.09375-0.375-0.09375-0.34375 0-0.61719 0.13672-0.8125 0.40625-0.19922 0.26172-0.29688 0.63281-0.29688 1.1094v2.5469h-1.6562v-7.2031h1.6562v2.7812c0.25-0.30078 0.51562-0.52344 0.79688-0.67188 0.28125-0.14453 0.59375-0.21875 0.9375-0.21875 0.59375 0 1.0469 0.1875 1.3594 0.5625 0.3125 0.36719 0.46875 0.89844 0.46875 1.5938z"/>
    </symbol>
    <symbol id="o" overflow="visible">
      <path d="m0.875-6.9219h1.9844l2.5156 4.75v-4.75h1.6875v6.9219h-1.9844l-2.5156-4.75v4.75h-1.6875z"/>
    </symbol>
    <symbol id="n" overflow="visible">
      <path d="m0.73438-2.0156v-3.1719h1.6719v0.51562 1.0625 0.84375c0 0.41797 0.007812 0.71875 0.03125 0.90625 0.019531 0.1875 0.054688 0.32422 0.10938 0.40625 0.0625 0.10547 0.14453 0.1875 0.25 0.25 0.11328 0.054687 0.24219 0.078125 0.39062 0.078125 0.34375 0 0.61328-0.12891 0.8125-0.39062 0.19531-0.26953 0.29688-0.64062 0.29688-1.1094v-2.5625h1.6562v5.1875h-1.6562v-0.75c-0.25 0.30469-0.51562 0.52734-0.79688 0.67188-0.28125 0.14453-0.58984 0.21875-0.92188 0.21875-0.59375 0-1.0547-0.17969-1.375-0.54688-0.3125-0.375-0.46875-0.91016-0.46875-1.6094z"/>
    </symbol>
    <symbol id="m" overflow="visible">
      <path d="m0.79688-5.1875h1.6562v5.0938c0 0.69531-0.16797 1.2266-0.5 1.5938-0.33594 0.36328-0.82031 0.54688-1.4531 0.54688h-0.8125v-1.0938h0.28125c0.3125 0 0.52344-0.074219 0.64062-0.21875 0.125-0.13672 0.1875-0.41406 0.1875-0.82812zm0-2.0156h1.6562v1.3438h-1.6562z"/>
    </symbol>
  </defs>
  <g>
    <desc>The original artwork was created by Vectors Point for the Noun Project and downloaded on 2021-12-07 from https://thenounproject.com/icon/bighorn-sheep-head-2608122/.</desc>
    <title>Icon for Urial</title>
    <path d="m345.83 320.28c2.5039 1.9297 3.2617 3.3906 3.3789 3.5312-1.3281-7.1797-0.72656-8.6797-8.9375-14.375-3.4102-2.3789-6.0508-3.8711-8.0898-6.2578-2.0898-2.4023-1.9453-4.0742-1.9922-4.2148-0.33984 1.8398-1.9219 5.8672 0.82812 10.945 3.9531 7.3984 10.828 7.2695 14.812 10.371z" style="fill: rgb(255, 110, 30);"/>
    <path d="m291.02 401.06c3.4922-3.8008 7.8438-6.7305 9.918-13.988 0.058594 13.617-5.957 21.738-8.75 29.512-7.0117 19.418 9.8242 30.68 15.008 36.941 0 0-0.039062-0.046876-0.10156-0.125 0.082031 0.074218 0.12891 0.12109 0.12891 0.12109-6.1719-8.1445 3.25-22.883 8.2812-32.809-6.2227 27.207 27.191 37.176 34.758 53.273-0.11328 0.29297-0.18359 0.44141-0.18359 0.44141s0.0625-0.14062 0.19922-0.40234l0.003906 0.007812-0.003906-0.007812c9.6836-18.555 40.383-26.57 34.266-53.32 16.828 28.719 8.2734 32.359 8.2852 32.816 0 0 0.046875-0.046875 0.12891-0.12109-0.0625 0.078124-0.10156 0.125-0.10156 0.125 0.67188-0.67969 1.3008-1.0469 2.5039-2.5156 30.098-29.387 3.6328-35.969 3.75-63.941 3.0664 10.73 13.629 14.523 15.418 22.527 0.25391 0.99609 0.20312 1.5625 0.20312 1.5625 3.2109-16.051-5.4023-18.469-13.781-30.371-2.75-3.9805-2.6914-5.0156-2.8008-5.2305 0.082031 3.8125-0.21094 4.7383 0.25781 8.168-10.902 29.457 13.121 32.668 0.125 60.18 1.8281-8.7969-1.4805-19.582-9.3086-26.828-2.5508-2.375-5-4.0898-6.9492-5.6602-4.6367-3.6758-5.4258-5.6211-5.5703-5.7852 1.4102 3.7109 2.0156 5.3086 3.9844 8.7695 4.0312 25.293-17.547 26.707-30.438 59.582-1.5312-3.5117-3.3125-12.195-16.762-26.656-9.1562-9.8789-16.469-17.809-14.145-32.93 2.6328-4.6133 3.1719-6.8203 3.9844-8.7656 0 0-0.33203 0.69922-1.2383 1.7695-4.3281 5.2734-25 15.219-20.586 36.504-13.227-28.035 11.273-30.07 0.125-60.18 0.18359-1.3477 0.34766-2.2539 0.25781-8.168-6.7734 15.766-20.426 16.355-16.578 35.598 0.17187-0.32812-0.72656-3.2109 5.7109-10.094z" style="fill: rgb(255, 110, 30);"/>
    <path d="m382.21 327.87c-0.26953 6.1016-2.1328 13.691-7.7734 12.383-0.14453-0.03125-23.047-8.4414-21.547-7.8867-2.5195-0.95703-3.1328-0.99219-5.7539 0-0.14844 0.054688-2.6602 0.97656-2.5 0.91797-19.781 7.0312-16.848 6.4688-19.047 6.9648-5.6914 1.3125-7.5039-6.5781-7.7617-12.375-0.54297-13.027 2.4141-19.062-9.7656-34.543 0.078125 0.14062 4.3164 5.4531 6.0859 12.59 1.9531 7.6602-0.17578 13.84-0.83594 21.871-1.1094 14.602 6.2695 19.934 13.41 18.762-4.8242 9.168 13.379 14.688 23.289 13.32 10.328 1.4258 28.039-4.3125 23.285-13.328 7.2344 1.1875 12.109-4.3477 13.23-11.453 2.1719-14.723-7.5781-22.547 5.4375-41.766-5.5312 7.043-9.2109 21.445-9.7539 34.543zm-32.195 26.977h-0.90234c-8.0938-0.09375-8.0117 0.19922-10.207-0.19531-3.4336-0.59766-9.207-2.125-10.188-5.3867-0.33203-1.1133-0.11719-2.2031 0.10547-3.1719 0.42578-0.11719 15.848-5.1406 21.191-7.0625 5.4609 1.957 20.465 6.8516 21.191 7.0547 1.9531 8.5234-12.27 9.457-21.191 8.7617z" style="fill: rgb(255, 110, 30);"/>
    <path d="m360.95 317.09c6.3789-2.8594 10.324-8.3945 9.5117-15.254-0.050781-0.47266-0.25-1.4141-0.60938-2.8711-0.046875 0.14062 0.089844 1.8242-1.9922 4.2148-2.043 2.3945-4.6016 3.8242-8.0898 6.2578-8.0273 5.5664-7.4609 6.8281-8.9375 14.375 4.7852-5.7031 5.918-4.8711 10.117-6.7227z" style="fill: rgb(255, 110, 30);"/>
    <path d="m557.18 149.91c-4.8242-15.512-20.867-39.621-44.191-52.871-43.336-24.062-100.4-8.2109-137.26 28.438-12.965 10.699-22.133 23.715-25.711 27.676-3.7305-4.1367-12.652-16.898-25.711-27.676-58.367-58.039-147.96-53.621-179.48 19.578-9.9375 24.867-8.207 38.438-8.6289 46.992 0.03125 0.14062 0.023437 55.594 53.281 96.531 30.629 23.473 46.855 20.5 48.945 23.195 0.25781 0.11328 0.48828 0.21875 0.71484 0.32031-1.6211-1.3008-0.44922-0.36328-0.8125-0.65234-0.0625-0.14062-0.35156-0.77734-0.28125-0.62109-3.9336-8.7266-0.34375-0.89062 0.14453 0.51563-0.30859-0.24609 0.69531 0.55859-0.69531-0.55469 0.22266 0.23047 0.45703 0.47656 0.70312 0.73047-2.2695-1.8242-10.277-1.4883-23.641-8.6406 8.4805-0.33594 8.3672-8.9883 8.5625-9.2266-0.14453 0.125-0.41797 0.65625-1.5 1.1445-2.0781 1.0547-4.9219 0.72656-7.293 0.875-3.1211 0.28906-7.207 1.5859-8.9102 1.8047-1.9375-1.2461-3.9062-2.6055-5.8945-4.0586 6.2227 1.0234 12.082-1.4336 14.988-8.0195 13.133 12.215 21.258 17.664 25.98 28.113-10.707-24.723-47.152-39.254-53.898-87.672-0.48438-3.5117-0.88672-7.082-1.1367-10.684 0.10547-0.054688 0.1875-0.097657 0.25-0.12891 0 0-0.10156 0.046875-0.25391 0.10547-2.918-42.387 21.629-59.961 58.66-52.953 0.078125 0.09375 0.11719 0.14062 0.11719 0.14062s-0.039063-0.050781-0.10156-0.13672c4.2422 0.80469 8.5312 1.9531 12.836 3.5234 0.38672 0.5625 0.59766 0.78516 0.94531 1.2109-0.16016-0.26172-0.30859-0.35547-0.63281-1.1016 11.383 4.2109 21.309 11.09 26.676 16.77-0.074219 5.5625 0.21484 9.3867 0.20312 14.816-2.9336-3.2695-5.7891-5.6992-9.6719-7.875 2.9453 0.95703 4.5195 1.6172 4.5195 1.6172-28.445-12.359-24.676-8.3125-49.816-16.473-38.637-11.934-35.938 11.836-1.543 37.348 13.543 9.957 28.742 16.809 45.559 15.867 0.36719 1.7266 0.76562 2.7148 1.375 3.8477 0.83594 5.2109 2.2031 9.1602 6.625 11.691-4.6211 15.039-4.2148 28.918 3.7109 42.672-3.0938 8.1719-11.5 13.461-14.324 23.402-2.6055 9.0469 0.58594 17.219 2.1406 24.039 0 0-0.039063-0.53125-0.007813-1.4844 0.17188 0.36328 0.09375 0.22656 0.15234 0.36719 0 0-0.089844-0.35937 0.097656-0.99609 0.082032-0.31641 0.25-0.6875 0.48047-1.0742 0.22266-0.39062 0.56641-0.78906 0.9375-1.1797 0.76953-0.78516 1.7812-1.4922 2.875-2.1445 1.1016-0.69141 2.3281-1.4453 3.6367-2.5781 1.3125-1.1172 2.543-2.5977 3.3398-4.0352 1.7695-3.1602 2.0625-5.9258 2.6367-7.4688-2.7344 17.645-24.02 37.844-12.789 61.105 0 0-0.035156-0.125-0.085938-0.30078 0.039063 0.066406 0.058594 0.10547 0.058594 0.10547-1.9844-7.8125 14.09-8.7852 16.824-25.117 0.26172 5.7422-2.3594 11.797-4.7383 17.047-9.9141 21.859-10.383 26.527-0.72266 45.805-1.2188-6.3125-2.4141-12.406-0.90234-19.742 2.5742-13.137 12.324-27.082 6.5078-44.008 0.11328-0.72656-0.054688 0.51172 0.38281-3.3594-4.3359 6.8359-10.414 7.5117-16.359 16.719 5.5195-17.488 12.383-19.117 11.852-45.953-0.035156-1.2383-0.015625-2.043-0.003906-2.3594 0.10938-0.28516 0.19922-0.42969 0.19922-0.42969s-0.22266 0.28125-0.80859 0.65234c-0.57031 0.37891-1.4766 0.86719-2.6055 1.3984-3.4922 1.6875-6.6875 3.0898-9.2656 6.0977 3.6406-15.648 11.34-19.32 12.848-30.855 10.234 14.219 19.957 13.703 25.617 24.508-0.29688 3.0898-1.4336 6.6914-2.4102 9.457-8.2031 22.082-14.07 35.031 8.7227 59.48 0.94922 1.8594 2.375 3.4766 4.25 4.5625 0.96875 1.0742 1.457 1.6992 1.457 1.6992s-0.34375-0.47656-0.91016-1.3945c0.85938 0.4375 0.94922 0.48828 1.2617 0.66016-3.5195-6.1992 2.2891-7.6133-1.4414-21.453 8.9688 14.723 6.3984 20.84 6.8828 28.246 0.96484 16.414 12.191 24.723 15.352 28.539 0.18359 0.22266 0.26562 0.35156 0.26562 0.35156s-0.16797-0.26563-0.35938-0.77344c0.019531 0.015625-0.25-0.21484 2.4258 2.0898-0.10547-0.14453-1.1914-1.1484-2.9102-4.1055-0.87109-6.25 2.3633-13.316 3.8047-32.078 0.089844-0.96875 0.28516-4.6172 0.73828-6.2188 0.44922 1.582 0.62109 4.9766 0.73828 6.2188 1.418 18.434 4.6758 25.844 3.8047 32.078-1.6758 2.8867-2.8047 3.9648-2.9102 4.1055 0.60156-0.52734 0.79297-0.69141 2.4258-2.0898-0.19141 0.50781-0.35938 0.77344-0.35938 0.77344 2.9297-3.7773 14.613-11.828 15.617-28.891 0.5625-8.6289-1.7188-9.6367 3.7773-22.215 1.1328-2.5352 2.2148-4.5664 3.1055-6.0273-3.2305 11.98 0.67188 14.98-0.40625 19.383-0.44922 1.707-0.95703 1.9297-1.0352 2.0703 1.3945-0.73047 1.25-0.65234 1.2617-0.66016-0.56641 0.91797-0.91016 1.3945-0.91016 1.3945s0.48828-0.625 1.457-1.6992c1.8398-1.0664 3.2812-2.6641 4.25-4.5625 30.859-33.102 8.1328-49.934 6.3164-68.938 5.6758-10.836 15.438-10.367 25.617-24.508 1.5156 11.539 9.1562 14.98 12.852 30.855-3.5977-4.1914-9.0742-5.6367-11.871-7.4961-0.58594-0.37109-0.80859-0.65234-0.80859-0.65234s0.085938 0.14844 0.19922 0.42969c0.40625 10.254-1.6094 16.477 4.9453 31.797 2.5742 6.0508 5.0625 10.68 6.9023 16.516-4.3594-6.75-9.4414-9.4727-13.066-12.664-3.1445-2.8281-3.168-3.8867-3.293-4.0547 0.23828 2.3945 0.35547 3.1914 0.38281 3.3594-7.8398 22.812 11.18 34.738 6.207 61.172-0.3125 1.6836-0.60156 2.5781-0.60156 2.5781s0.33203-0.87891 1.1094-2.418c1.7578-3.6055 3.7109-6.9453 4.9219-11.621 4.9297-18.898-12.133-34.242-11.492-48.812 2.4609 14.652 16.965 17.777 17.039 23.762 0.011719 0.28906 0.050782 0.39844-0.21484 1.3555 0 0 0.023438-0.042968 0.058594-0.10547-0.046875 0.17969-0.085937 0.30078-0.085937 0.30078 0.13281-0.33203 2.1094-3.6602 2.9141-9.1719 3.0586-18.836-13.422-37.219-15.703-51.934 1.9727 5.2656 1.1172 8.7461 9.6172 14.082 1.3242 0.78906 3.0586 1.9922 3.8125 3.3242 0.78125 1.3398 0.54688 1.9297 0.57422 2.0703 0.058594-0.14062-0.019531-0.007813 0.15234-0.36719 0.035156 0.95312-0.007812 1.4844-0.007812 1.4844s0.11328-0.80078 0.5-2.2422c0.36719-1.4453 1.0078-3.5234 1.6055-6.1797 4.9102-22.168-9.8281-27.238-14.289-39.016 8.0195-13.91 8.3477-27.57 3.7109-42.672 4.4531-2.5508 5.7969-6.5273 6.625-11.691 0.625-1.1641 1.0117-2.1445 1.375-3.8477 16.824 0.94141 32.086-5.9609 45.559-15.867 38.539-28.586 33.238-48.09-1.543-37.348-25.074 8.1406-21.418 4.1367-49.816 16.473 0 0 1.5742-0.66016 4.5195-1.6172-3.9453 2.2148-6.832 4.707-9.6719 7.875-0.015624-5.4375 0.27344-9.2617 0.20313-14.816 4.8789-5.1641 14.992-12.449 26.676-16.77-0.32031 0.73047-0.48438 0.85547-0.63281 1.1016 0.34766-0.43359 0.55469-0.64453 0.94531-1.2109 4.2812-1.5625 8.5898-2.7188 12.836-3.5234-0.0625 0.085937-0.10156 0.13672-0.10156 0.13672s0.039062-0.046874 0.11719-0.14062c39.508-7.4766 61.422 12.84 58.66 52.953-0.15234-0.058593-0.25391-0.10547-0.25391-0.10547 0.066407 0.035156 0.14844 0.078125 0.25 0.12891-0.75 10.828-2.7656 23.773-7.125 33.848-12.363 28.961-40.668 46.926-47.633 63.879-0.36719 0.84375-0.36328 0.83203 0.011719 0.003907 4.2031-9.6328 15.148-17.676 25.699-27.488 2.793 6.3477 8.5273 9.082 14.988 8.0195-1.9883 1.4492-3.957 2.8125-5.8945 4.0586-2.0156-0.25781-5.6641-1.5039-8.9141-1.8047-2.5469-0.16016-4.3438 0.097656-6-0.42969-2.6836-0.88672-2.6484-1.4961-2.793-1.5898 0.18359 0.21875 0.054687 8.8867 8.5625 9.2266-13.047 6.9844-22.492 7.1328-23.762 8.7617 0.058594-0.14062 0.18359-0.4375 0.125-0.29688l0.69531-0.55859c-0.74609 0.375-0.71094 0.60547 0.14062-1.3945 0.49219-1.1523 0.65625-1.5391 1.1328-2.6367-0.035156 0.082032-0.91016 2.0469-1.168 2.6211-0.90234 1.9961-0.53516 1.4375-1.7461 2.7227l0.8125-0.64844c-0.042969 0.14062-0.003906 0.011719-0.097656 0.32812 0.47656-0.61719 4.9336-1.6328 5.4922-1.7617 6.457-1.4062 10.438-1.7812 21.512-7.5352 1.2539-0.37891 2.3789-0.92969 3.7109-1.9766 43.07-23.082 74.211-71.164 71.285-120.76-1.75-13.387-1.0625-14.289-6.4336-29.832zm-37.82 82.383c1.1289-5.2031 1.9688-10.875 2.4141-15.469 13.73 0.40625 26.41-5.8555 34.984-18.648-0.17969 3.3359-1.3242 11.227-3.3438 18.973-9.8984 7.1836-28 15.605-34.055 15.145zm21.945-97.914c5.8359 9.2617 10.305 19.785 12.781 30.328-2.2461 1.7656-4.2578 3.5977-6.1445 5.7852-3.2227 3.7266-13.797 20.363-26.562 25.32-1.0273-6.4219-2.7109-11.18-4.9141-15.637 12.652-0.13281 25.262-9.7891 25.086-24.703-0.089844-6.3633-2.9102-14.703-0.24609-21.094zm15.777 55.992c-9.0664 8.957-22.852 20.07-35.125 24.199 0.51562-6.75 0.3125-11.973-0.33984-16.969 11.57 0.027344 23.121-6.9258 28.473-20.383 1.6992-4.4414 2.6055-7.0781 4.4492-10.508 3.0781 14.621 2.4102 22.355 2.543 23.66zm-174.23-48.633c1.0547 1.9297 2.2266 3.1602 3.75 4.3906-5.2148-0.88672-13.324-1.9805-17.086-5.5859 2.3242-1.7188 3.2383-2.3633 11.402-8.3086-0.09375 1.8047 0.32812 6.5664 1.9336 9.5039zm-32.922 11.531c0.023437-0.023437 0.058594-0.054687 0.085937-0.082031 0.027344 0.027344 0.0625 0.058594 0.085938 0.082031-0.03125 0.054688-0.054688 0.11328-0.085938 0.17188-0.03125-0.058594-0.054687-0.11719-0.085937-0.17188zm-116.34-61.918c0.042968 0.050782 0.09375 0.10938 0.14453 0.16406-0.95703-0.007813-2.0039-0.050781-5.2188 0.078125 1.0234-0.074219 3.3398-0.20312 5.0742-0.24219zm85.523 40.883c10.438 7.5977 9.1523 6.6406 11.402 8.3086-3.7578 3.6055-11.844 4.6953-17.086 5.5859 4.3398-3.5117 5.9727-8.2852 5.6836-13.895zm147.34-40.883c1.7695 0.039063 2.6406 0.058594 5.0742 0.24609-3.293-0.13281-4.6445-0.085937-5.2188-0.078125 0.046874-0.058593 0.097656-0.11328 0.14453-0.16797zm-116.16 61.59c-0.16797 0.25781-0.070312 0.13672-0.17188 0.31641-0.019531-0.023437-0.050781-0.058593-0.074219-0.085937 0.066407-0.066406 0.14844-0.14062 0.24609-0.23047zm-0.28516 0.23047c-0.023438 0.027344-0.054688 0.0625-0.074219 0.085937-0.09375-0.16406-0.011719-0.070312-0.17188-0.31641 0.09375 0.089844 0.17969 0.16406 0.24609 0.23047zm-190.52 9.6445c2.7773 9.6953 12.887 17.242 24.086 17.363-2.1562 4.3594-3.8711 9.1094-4.9141 15.637-7.6602-2.9766-15.367-10.895-20.352-17.223-4.1211-5.2305-5.832-8.75-12.355-13.883 2.2656-9.6562 6.6797-20.633 12.781-30.328 3.4062 8.1641-2.4648 19.484 0.75391 28.434zm-12.859 54.332c-1.3906-5.3438-3.0547-13.566-3.3438-18.973 7.7734 11.59 19.82 19.098 34.984 18.648 0.44141 4.5547 1.2773 10.23 2.4141 15.469-6.332 0.48047-24.254-8.0352-34.055-15.145zm-1.125-50.438c4.7422 8.8164 4.6758 16.922 15.277 24.984 4.8516 3.6797 11.031 5.9219 17.645 5.9062-0.65234 4.9922-0.85547 10.207-0.33984 16.969-12.668-4.2617-26.02-15.211-35.125-24.199 0.09375-2.1328-0.34375-9.957 2.543-23.66zm68.809 118.49c-2.0234 1.5234-5.2617 1.6836-7.8164 1.5469-18.227-0.86719-6.0312-0.44531-15.258-0.29297-0.18359 0-0.35156-0.003906-0.52734-0.007812-3.125-2.668-6.2695-5.5781-9.375-8.75 7.0195 2.7852 14.852 1.4648 20.477-5.1719 4.0273 4.5352 8.1172 8.6016 12.5 12.676zm-13.281-13.543c-7.457 2.4492-21.125-0.94922-28.367-3.6836-3.3867-4.1641-6.4492-8.3594-9.5547-13.242 8.5781 5.2109 20.773 4.4648 26.617 1.4375 3.3047 5.6758 6.9961 10.566 11.305 15.488zm-12.066-16.824c-2.1133-0.023438-2.7344-0.28906-17.457-4.3008-4.5-1.25-10.035-2.9023-13.98-5.4414-2.9961-5.6797-5.5898-11.457-8.0039-18.43 7.1172 6.4141 15.996 9.0391 22.973 8.4062 2.4219-0.12109 6.2734-0.56641 8.4375-1.6367 2.082 9.1562 4.7031 15.438 8.0312 21.402zm-4.9258-75.621c-8.2188-2.6523-17.16-11.637-18.508-24.031-0.74219-6.9375-0.45313-15.508-6.1953-21.699 2.6719-4.1445 6.7305-10.293 19.895-19.129 1.2344 11.777-2.4375 19.75-3.8828 26.926-2.707 13.488 3.7695 24.18 14.406 29.398-0.63672 0.75-3.7891 4.8359-5.7148 8.5352zm6.4844-9.4258c-5.6797-5.1328-8.9023-12.957-8.7344-20.426 0.027344-2.082 0.37891-4.3125 0.86328-6.7109 1.4727-7.332 4.4336-16.684-1.4414-29.617 10.418-6.6094 21.133-10.629 33.152-12.73 1.4688 16.25-10.309 26.641-14.762 34.863-6.3906 11.762-2.6328 21.438 4.7227 24.602-5.2773 2.2695-9.7109 5.4414-13.801 10.02zm14.609-10.332c-3.8555-2.6602-5.8711-8.457-2.5469-15.508 4.8945-10.543 20.957-21.418 12.477-43.777 8.4023-1.4062 16.418-1.6836 24.488-1.2383-0.54688 15.918-14.996 25.309-17.828 38.734-1.5586 7.1562 0.375 14.172 6.6445 18.43-7.9922-0.40625-15.879 0.39844-23.234 3.3594zm23.312-3.3555c-4.5078-4.0391-3.5742-11.281-1.0117-16.668 5.8086-12.309 16.66-18.523 12.328-40.484 6.8398 0.39062 13.484 1.3477 19.855 2.7031-1.3164 7.1875-3.125 16.543-5.8164 22.25-4.2188 9.1875-18.113 20.633-12.586 33.879-2.2969-0.50391-4.6719-0.92188-7.1367-1.2109-1.832-0.20312-3.7148-0.37109-5.6328-0.46875zm14.086 1.9727c-1.5547-12.023 13.68-19 17.859-31.742 2.793-8.2188 1.1094-16.824 0.1875-24.484 6.8711 1.5078 12.652 3.2461 18.504 5.2969-0.19531 4.7422-2.1484 11.227-4.0039 15.598-8.0547 21.254-22.332 27.855-19.555 39.598-4.2695-1.8086-8.6797-3.2422-12.992-4.2656zm14.203 4.7891c0.36719-13.543 29.531-15.301 22.574-55.637 13.168 4.6328 12.02 4.5938 19.109 9.832-0.87109 11.855-8.418 25.027-17.125 33.461-4.1055 4.3086-14.117 9.3555-11.777 17.469 0.25391 0.86719 0.62109 1.457 0.87109 1.8359 0.22266 0.30078 0.33203 0.44922 0.41406 0.55859 0 0-0.14062-0.19531-0.34766-0.59766-0.19141-0.40625-0.39844-1.0508-0.41016-1.8789-0.25781-6.1875 8.332-8.1719 12.57-10.66 13.547-7.6406 20.488-22.414 16.738-39.5 10.641 7.8633 7.5703 5.6094 14.664 10.773-3.1094 7.2695-0.90234 3.7969-6.1055 18.688-17.434 4.0977-23.707 17.852-23.957 35.246-6.2422-7.1406-16.039-14.648-27.219-19.59zm54.953-11.254c10.008 45.297 0.40625 61.117-2.1758 87.852-10.281-11.113-13.133-26.57-23.141-39.426 5.6758-20.867 1.707-39.449 25.316-48.426zm-27.371 58.508c2.7578 4.4766 5.3203 8.9688 8.0156 13.121-5.2852-1.7109-10.723-1.0312-14.961 1.3203 0.91797-6.7031 4.6914-8.875 6.9453-14.441zm0.066406 17.914c-0.52344 1.0234 0.50391 2.4297 1.6641 3.0859 1.6445 0.92578 3.5156 0.29687 3.8359-1.0859 0.13281 0.046875 3.3398 1.2148 3.4844 1.2695-6.2969 4.2383-12.164-1.2695-12.242-4.3125 1.0391 0.29688 2.1367 0.65625 3.2578 1.043zm-76.105-48.789s-0.003906-0.011719 0-0.015626c-0.12109 0.046876 0.26953-0.13672 0.78906-0.25391 10.051-2.1289 14.047 1.4766 40.742 5.1055 17.973 5.3906 24.914 11.609 31.836 21.859-1.7266 4.8516-6.6875 7.9023-8.3242 14.656-6.3086-12.148-9.2422-18.625-21.879-23.371-9.3477-3.4766-17.555-3.8359-26.199-8.2383-6.4414-3.3281-8.957-6.6211-9.1016-6.7461 10.91 14.785 15.012 15.164 32.617 21.723 12.988 4.8633 12.484 7.7734 24.188 18.832-0.14062 1.4258-0.20703 2.7461 0.19531 4.8047-27.031-0.96875-62.82-36.043-64.863-48.355zm69.535 53.406c-0.37109-1.9805-0.58984-3.1367-0.62109-5.1094 0.10156-0.011718 0.18359-0.019531 0.23047-0.023437-0.046874 0.003906-0.125 0.007813-0.23047 0.011719-0.007813-0.42969 0.003906-0.87109 0.027344-1.3281 0.5 0.015625 0.91016 0.082031 1.4336 0.17969-1.4492 2.0234-0.71875 4.7656 0.76172 6.7812 5.6484 7.6797 15.551 3.6914 16.023-1.1055 3.0195 1.1055 3.5898 1.3984 5.4844 2.2383 2.3516 2.4492 5.2031 4.9727 8.4453 6.9805-0.007813 0.10937-0.019531 0.21484-0.027344 0.32422-17.773-3.8203-24.805 4.4609-31.527-8.9492zm121.68 62.527c-6.1406 6.7539-10 9.5547-12.434 16.848v-0.050782c0 0.011719-0.67578 1.7383-1.4375 6.3047 0 0 0.20312-1.2266 1.1484-3.2383 0-0.003906 0.003907-0.007812 0.007813-0.011718-1.4688 25.434 9.6094 30.672-4.4453 61.004-0.17969-4.5352-2.2266-7.8867-4.3438-11.336 0.058594-0.070312 0.10156-0.12109 0.10156-0.12109l-0.10938 0.10938c-0.87891-1.4336-0.82031-1.6016-0.89062-1.7461-0.019531 0.14062 0.17578 0.41406-0.52344 3.0977-20.062 18.637-11.539 20.43-16.395 40.855-0.26562-11.98-8.1055-19.215-10.133-23.617 0.019531-0.0625 0.03125-0.10156 0.03125-0.10156s-0.015625 0.039063-0.039063 0.085937c-0.019531-0.046874-0.039062-0.085937-0.039062-0.085937s0.011719 0.035156 0.03125 0.10156c-1.7734 3.8516-9.8633 11.508-10.133 23.617-3.8125-16.047 0.61719-20.617-7.1172-31.062-2.9062-3.8711-5.9492-6.7109-9.2734-9.793-0.69922-2.6797-0.50391-2.957-0.52344-3.0977-0.070313 0.14453 0.003906 0.28906-0.89062 1.7461l-0.10938-0.10938s0.042968 0.050781 0.10156 0.12109c-2.0625 3.3633-4.1602 6.6914-4.3438 11.336-13.973-30.148-2.9922-35.859-4.4453-61.004 0 0.003906 0.003906 0.007812 0.007812 0.011718 0.94531 2.0117 1.1484 3.2383 1.1484 3.2383-0.75781-4.5898-1.4336-6.2773-1.4375-6.3047v0.050782c-4.918-14.711-21.504-17.168-30.352-51.586-1.457-7.0312-1.2969-9.168-1.4766-11.5 0.066406-3.0508-0.003907-3.2305 0.26562-5.3789 8.3438 4.5625 15.5-0.41797 27.832-1.0703-0.84766 12.297 2.1719 36.328 10.438 44.906-1.0312 7.4258 0.51953 12.766 1.8203 17.355-3.4531-17.281 9.8516-28.992 13.75-33.93 14.207-18.047 11.578-36.117 8.3242-58.504-1.7344 20.992-2.1797 36.715-14.066 54.539-3.7734 5.6719-8.4609 10.738-9.8242 20.52-6.8906-7.8867-5.9219-32.602-4.332-42.977 0.60938 0.25 0.050781 0.007812 1.3086 0.56641-1.0586-0.56641-0.80078-0.42578-1.2891-0.69922 7.1445-46.297 13.043-38.125-3.6211-92.676 5.8164-2.207 15.555-5.3164 19.281-10.648 0.75781 0.5625 1.4766 1.1133 2.1758 1.6523 1.0664 1.8945 2.3008 4.4414 0.19531 0.15234 0.90234 0.69531 0.35938 0.25781 1.4609 1.1367 4.1914 4.9648 7.3086 6.6719 11.117 12.672 3.0938 24.371 0.70703 5.0781 3.0117 20.668 0 0 0.027344-0.53906 0.21094-1.5195 0.19531-0.97656 0.46484-2.3438 0.79688-4.0078 0.33203 1.6641 0.60156 3.0273 0.79687 4.0078 0.18359 0.97656 0.21094 1.5195 0.21094 1.5195 2.1211-14.293 0.19531 1.7422 3.0117-20.66 1.0703-1.6797 2.1953-3.1719 3.2891-4.4336 1.7734-2.1211 4.9531-4.9492 7.25-7.5703 0.80859-0.92188 0.29297-0.46094 2.0391-1.8125-0.29688 0.60547 0.17188-0.39062-1.1445 2.4453 1.3359-2.6562 0.98047-1.9609 1.3398-2.5977 0.69922-0.53906 1.418-1.0859 2.1758-1.6523 3.7578 5.3711 13.66 8.5156 19.281 10.648-3.168 10.363-8.9961 24.422-10.316 40.637-0.35547 4.3164-0.32812 8.9219 0.050781 13.602 0.375 4.6875 1.1172 9.4609 2.0039 14.266 1.625 8.6719 3.4844 16.719 4.6367 24.172-0.48047 0.26953-0.24219 0.14062-1.2891 0.69922 1.2031-0.53125 0.72266-0.32422 1.3086-0.56641 1.5664 10.207 1.3438 16.207 0.71875 24.055-0.55859 6.6719-0.80859 14.066-5.0547 18.922-2.8359-20.355-21.008-19.73-23.793-71.203-0.14453-2.4844-0.10156-3.8555-0.10156-3.8555s-0.085938 1.3672-0.4375 3.832c-0.17578 1.2383-0.39453 2.75-0.64453 4.5-8.3398 58.02 29.492 52.57 23.156 84.102 1.6562-5.8398 2.7852-10.41 1.8203-17.355 4.7422-4.9062 6.0391-11.035 7.9141-18.508 1.9453-7.9414 3.3164-14.895 2.5234-26.398 12.398 0.65625 19.469 5.6406 27.832 1.0703 1.6875 13.395-4.0898 34.074-19.121 51.617zm-8.7734-53.574c-0.007812-0.10937-0.015625-0.21484-0.027343-0.32422 3.1055-1.9258 5.9453-4.3789 8.4453-6.9805 0.76953-0.34375 1.8086-0.89062 5.4336-2.2188 0.64062 3.8477 6.582 6.875 11.391 4.8203 4.9961-2.1289 6.7852-7.375 5.1602-10.457 0.61719-0.12109 1.1367-0.21484 1.7188-0.23438 0.023437 0.45312 0.03125 0.89844 0.027344 1.3281-0.10156-0.007812-0.18359-0.011718-0.23047-0.011718 0.046875 0.003906 0.125 0.011718 0.23047 0.023437-0.03125 1.9727-0.25 3.1328-0.62109 5.1094-6.7148 13.383-13.754 5.1211-31.527 8.9453zm25.02-31.484c2.2695 5.6055 6.0312 7.7617 6.9492 14.441-4.1562-2.3047-9.5781-3.0625-14.961-1.3203 2.6953-4.1562 5.2539-8.6445 8.0117-13.121zm-5.4492 19.867c0.17969 0.88281 1.0117 1.4648 1.8984 1.5508 2.2344 0.25391 4.3438-2.1992 3.5898-3.543 0.97266-0.33594 1.9258-0.64844 2.8359-0.91797-1.1875 4.7617-5.8945 7.6523-11.91 4.2148 0.15234-0.050781 3.4414-1.25 3.5859-1.3047zm31.055-42.777c12.652-5.1875 8.9727-1.9453 31.129-6.9492 15.406-3.457 19.535-0.94531 19.309-1.0312-0.32031 0.54297-0.72266 8.4922-23.184 28.293-11.609 10.23-25.949 19.52-41.68 20.086 0.38281-1.9727 0.34375-3.293 0.19531-4.8047 0.76172-0.72266 10.859-11.098 12.199-12.285 8.4648-7.4141 21.555-8.1172 32.469-15.422 7.6133-5.1875 11.098-11.676 12.137-12.848-0.27734 0.1875-5.2773 7-20.402 10.816-22.625 5.9805-25.715 6.2305-36.781 27.535-1.625-6.6992-6.5977-9.8047-8.3242-14.656 6.2031-9.1875 11.828-14.176 22.934-18.734zm-50.801 52.258c-0.64453-6.6641-1.8711-13.613-3.1914-20.656-0.875-4.7344-1.7148-9.3086-2.3125-13.715-0.60156-4.4102-0.98047-8.6328-1.0742-12.711-0.30859-12.852 1.9531-29.688 4.4023-40.77 7.5234 2.8594 12.562 5.6992 16.363 12.977 5.6719 10.516 5.7031 23.5 8.9531 35.449-1.7344 2.2266-14.062 29.609-23.141 39.426zm25.559-57.012c-0.24609-17.324-6.4727-31.133-23.957-35.246-4.7969-13.754-3.3047-12.145-6.1055-18.688 7.0859-5.1602 3.8984-2.8164 14.664-10.773-2.8242 12.895-0.015625 25.812 10.996 35.488 8.6211 7.3164 21.633 8.1094 17.555 17.148 6.0234-8.1172-6.1719-15.871-8.3438-17.891-11.305-9.8789-18.473-24.543-19.273-35.441 6.8945-5.0938 5.8047-5.1523 19.109-9.832-7.0312 40.766 22.199 41.789 22.574 55.637-10.965 4.8555-21.227 12.742-27.219 19.598zm28.434-20.117c0.85547-3.6211-0.0625-7.2656-1.8906-10.566-2.375-4.3359-20.887-25.867-21.668-44.625 5.8906-2.0625 11.664-3.7969 18.504-5.2969-0.94141 7.8203-2.6133 16.238 0.1875 24.484 4.1562 12.668 19.406 19.715 17.859 31.742-4.293 1.0195-8.6992 2.4492-12.992 4.2617zm14.305-4.5547c6.0273-14.441-10.082-24.309-14.699-39.508-1.3906-4.6211-2.832-11.875-3.6992-16.621 6.3711-1.3555 13.016-2.3125 19.855-2.7031-4.3359 21.98 6.6172 28.383 12.328 40.484 2.7969 5.8672 3.2305 12.855-1.0117 16.668-1.9219 0.097657-8.75 0.80078-12.773 1.6797zm12.855-1.6836c10.516-7.1641 8.1797-19.832 1.1758-30.52-3.1406-4.8086-11.973-15.512-12.359-26.645 8.043-0.44531 16.062-0.17188 24.488 1.2383-8.5469 22.512 7.4023 32.855 12.477 43.777 3.3438 7.0938 1.2344 12.902-2.5469 15.508-7.3633-2.9609-15.25-3.7656-23.234-3.3594zm24.031 3.6797c7.3828-3.1797 11.141-12.797 4.7227-24.602-4.4023-8.125-16.234-18.633-14.762-34.863 11.496 2.0078 22.379 5.8945 33.152 12.73-7.4961 16.5-0.70312 26.617-0.57812 36.324 0.17578 7.6562-3.1836 15.41-8.7344 20.426-4.082-4.5781-8.5156-7.7539-13.801-10.016zm14.578 10.898c10.426-5.1172 17.16-15.676 14.406-29.398-1.4961-7.4219-5.125-15.02-3.8828-26.926 12.254 8.2266 16.66 14.109 19.895 19.129-5.6992 6.1445-5.4648 14.84-6.1992 21.699-1.2852 11.84-9.5898 21.152-18.508 24.031-1.9258-3.6953-3.7656-6.2344-5.7109-8.5352zm0.027343 85.496c5.918 3.0664 18.113 3.7266 26.613-1.4375-3.1328 4.9297-6.1836 9.0977-9.5547 13.242-7.0195 2.6484-21.152 6.0508-28.367 3.6836 0.3125-0.35547 0.625-0.6875 0.93359-1.0469 3.6484-4.2656 7.2344-9.0508 10.375-14.441zm-0.98047 30.281c-1.7266 0.019531-2.5742-0.14844-5.3633-0.21484-8.0742-0.14844-14.41 1.8555-18.242-1.0312 4.4727-4.1719 8.4609-8.1289 12.504-12.672 5.1523 6.0781 12.727 8.2461 20.477 5.1719-3.1055 3.168-6.25 6.0781-9.375 8.7461zm33.18-41.359c-7.3359 4.6914-29.816 9.7227-31.441 9.7422 3.3086-5.9297 5.9375-12.203 8.0352-21.398 6.0586 3 20.496 3.0625 31.41-6.7695-2.3711 6.8555-4.9297 12.602-8.0039 18.426z" style="fill: rgb(255, 110, 30);"/>
    <use transform="matrix(1, 0, 0, 1, 70, 588.47265625)" style="fill: rgb(255, 110, 30);" xlink:href="#u"/>
    <use transform="matrix(1, 0, 0, 1, 76.96484375, 588.47265625)" style="fill: rgb(255, 110, 30);" xlink:href="#d"/>
    <use transform="matrix(1, 0, 0, 1, 81.6484375, 588.47265625)" style="fill: rgb(255, 110, 30);" xlink:href="#b"/>
    <use transform="matrix(1, 0, 0, 1, 88.08203125, 588.47265625)" style="fill: rgb(255, 110, 30);" xlink:href="#l"/>
    <use transform="matrix(1, 0, 0, 1, 94.48828125, 588.47265625)" style="fill: rgb(255, 110, 30);" xlink:href="#a"/>
    <use transform="matrix(1, 0, 0, 1, 99.02734375, 588.47265625)" style="fill: rgb(255, 110, 30);" xlink:href="#b"/>
    <use transform="matrix(1, 0, 0, 1, 105.46484375, 588.47265625)" style="fill: rgb(255, 110, 30);" xlink:href="#k"/>
    <use transform="matrix(1, 0, 0, 1, 115.5625, 588.47265625)" style="fill: rgb(255, 110, 30);" xlink:href="#j"/>
    <use transform="matrix(1, 0, 0, 1, 122.35546875, 588.47265625)" style="fill: rgb(255, 110, 30);" xlink:href="#i"/>
    <use transform="matrix(1, 0, 0, 1, 131.84765625, 588.47265625)" style="fill: rgb(255, 110, 30);" xlink:href="#h"/>
    <use transform="matrix(1, 0, 0, 1, 139.1953125, 588.47265625)" style="fill: rgb(255, 110, 30);" xlink:href="#b"/>
    <use transform="matrix(1, 0, 0, 1, 145.6328125, 588.47265625)" style="fill: rgb(255, 110, 30);" xlink:href="#g"/>
    <use transform="matrix(1, 0, 0, 1, 151.2578125, 588.47265625)" style="fill: rgb(255, 110, 30);" xlink:href="#a"/>
    <use transform="matrix(1, 0, 0, 1, 155.79296875, 588.47265625)" style="fill: rgb(255, 110, 30);" xlink:href="#c"/>
    <use transform="matrix(1, 0, 0, 1, 162.31640625, 588.47265625)" style="fill: rgb(255, 110, 30);" xlink:href="#d"/>
    <use transform="matrix(1, 0, 0, 1, 166.99609375, 588.47265625)" style="fill: rgb(255, 110, 30);" xlink:href="#t"/>
    <use transform="matrix(1, 0, 0, 1, 175.94921875, 588.47265625)" style="fill: rgb(255, 110, 30);" xlink:href="#f"/>
    <use transform="matrix(1, 0, 0, 1, 182.90625, 588.47265625)" style="fill: rgb(255, 110, 30);" xlink:href="#c"/>
    <use transform="matrix(1, 0, 0, 1, 189.42578125, 588.47265625)" style="fill: rgb(255, 110, 30);" xlink:href="#s"/>
    <use transform="matrix(1, 0, 0, 1, 192.6796875, 588.47265625)" style="fill: rgb(255, 110, 30);" xlink:href="#e"/>
    <use transform="matrix(1, 0, 0, 1, 199.4375, 588.47265625)" style="fill: rgb(255, 110, 30);" xlink:href="#a"/>
    <use transform="matrix(1, 0, 0, 1, 70, 597.96484375)" style="fill: rgb(255, 110, 30);" xlink:href="#r"/>
    <use transform="matrix(1, 0, 0, 1, 74.12890625, 597.96484375)" style="fill: rgb(255, 110, 30);" xlink:href="#d"/>
    <use transform="matrix(1, 0, 0, 1, 78.80859375, 597.96484375)" style="fill: rgb(255, 110, 30);" xlink:href="#c"/>
    <use transform="matrix(1, 0, 0, 1, 85.33203125, 597.96484375)" style="fill: rgb(255, 110, 30);" xlink:href="#q"/>
    <use transform="matrix(1, 0, 0, 1, 98.52734375, 597.96484375)" style="fill: rgb(255, 110, 30);" xlink:href="#a"/>
    <use transform="matrix(1, 0, 0, 1, 103.0625, 597.96484375)" style="fill: rgb(255, 110, 30);" xlink:href="#p"/>
    <use transform="matrix(1, 0, 0, 1, 109.8203125, 597.96484375)" style="fill: rgb(255, 110, 30);" xlink:href="#b"/>
    <use transform="matrix(1, 0, 0, 1, 119.5625, 597.96484375)" style="fill: rgb(255, 110, 30);" xlink:href="#o"/>
    <use transform="matrix(1, 0, 0, 1, 127.50390625, 597.96484375)" style="fill: rgb(255, 110, 30);" xlink:href="#c"/>
    <use transform="matrix(1, 0, 0, 1, 134.02734375, 597.96484375)" style="fill: rgb(255, 110, 30);" xlink:href="#n"/>
    <use transform="matrix(1, 0, 0, 1, 140.78515625, 597.96484375)" style="fill: rgb(255, 110, 30);" xlink:href="#e"/>
    <use transform="matrix(1, 0, 0, 1, 150.84375, 597.96484375)" style="fill: rgb(255, 110, 30);" xlink:href="#f"/>
    <use transform="matrix(1, 0, 0, 1, 157.80078125, 597.96484375)" style="fill: rgb(255, 110, 30);" xlink:href="#d"/>
    <use transform="matrix(1, 0, 0, 1, 162.48046875, 597.96484375)" style="fill: rgb(255, 110, 30);" xlink:href="#c"/>
    <use transform="matrix(1, 0, 0, 1, 169.00390625, 597.96484375)" style="fill: rgb(255, 110, 30);" xlink:href="#m"/>
    <use transform="matrix(1, 0, 0, 1, 172.2578125, 597.96484375)" style="fill: rgb(255, 110, 30);" xlink:href="#b"/>
    <use transform="matrix(1, 0, 0, 1, 178.6953125, 597.96484375)" style="fill: rgb(255, 110, 30);" xlink:href="#g"/>
    <use transform="matrix(1, 0, 0, 1, 184.3203125, 597.96484375)" style="fill: rgb(255, 110, 30);" xlink:href="#a"/>
  </g>
</svg>